<svg xmlns="http://www.w3.org/2000/svg" width="32" height="32" viewBox="0 0 32 32">
    <g fill="none" fill-rule="nonzero" transform="translate(0 4)">
        <circle cx="12.22" cy="12.218" r="11.556" fill="#757575"/>
        <path fill="#FFF" d="M6.89 15.998a.794.794 0 0 1-.792-.794V7.27c0-.584.473-1.058 1.057-1.058h10.58c.583 0 1.056.474 1.056 1.058v7.934a.793.793 0 0 1-.793.794H6.89zm.532-8.462v7.137h10.045V7.536H7.422zm11.869 8.948c.146 0 .265.118.265.264v.98c0 .524-.532.948-1.188.948H6.52c-.656 0-1.188-.423-1.188-.948v-.98c0-.146.119-.264.265-.264h13.693zm-5.195 1.361a.264.264 0 1 0 0-.53h-3.304a.265.265 0 1 0 0 .53h3.304z"/>
    </g>
</svg>
