<svg xmlns="http://www.w3.org/2000/svg" width="96" height="96" viewBox="0 0 96 96">
    <g fill="none" fill-rule="nonzero" transform="translate(7 7)">
        <g fill="#FFC66C">
            <path d="M6.296 60.877h63.127c5.958 0 10.777 4.878 10.68 10.858-.074 4.656-3.918 8.37-8.574 8.37H8.433a6.514 6.514 0 0 0 6.514-6.514v-6.2a6.514 6.514 0 0 0-6.514-6.514H6.296zM71.807 48.555h6.383V36.826a3.191 3.191 0 1 0-6.383 0v11.729z"/>
        </g>
        <path fill="#5A54E0" d="M17.149 29.262v10.162c0 1.181.622 2.275 1.638 2.879l20.354 12.085a3.348 3.348 0 0 0 3.419 0l20.354-12.085a3.348 3.348 0 0 0 1.639-2.88v-9.729"/>
        <path fill="#6A80FF" d="M74.282 23.486L42.354 42.442c-.927.55-2.08.55-3.007 0L7.419 23.486a1.465 1.465 0 0 1 0-2.52L39.347 2.009c.927-.55 2.08-.55 3.007 0l31.928 18.957a1.465 1.465 0 0 1 0 2.52z"/>
        <ellipse cx="40.85" cy="22.643" fill="#72D8FF" rx="4.612" ry="3.936"/>
        <path fill="#FEDA9B" d="M6.296 67.854v-6.977c5.9 0 10.683 4.783 10.683 10.682a8.546 8.546 0 0 1-8.546 8.546 6.837 6.837 0 0 1-6.837-6.836 5.47 5.47 0 0 1 5.47-5.47 4.375 4.375 0 0 1 4.375 4.376"/>
        <path fill="#000" d="M6.605 24.858l8.948 5.313v9.253c0 1.736.927 3.365 2.42 4.25L38.327 55.76a4.94 4.94 0 0 0 5.048 0l20.353-12.085a4.965 4.965 0 0 0 2.42-4.251V30.17l7.255-4.308v6.45a4.795 4.795 0 0 0-3.191 4.514v11.728c0 .881.714 1.596 1.595 1.596h6.383c.881 0 1.596-.715 1.596-1.596V36.827a4.795 4.795 0 0 0-3.192-4.513V22.226c0-1.091-.56-2.075-1.498-2.632L43.17.637a4.539 4.539 0 0 0-4.637 0L6.605 19.594a3.035 3.035 0 0 0-1.498 2.632c0 1.09.56 2.075 1.498 2.632zM19.602 40.93a1.76 1.76 0 0 1-.858-1.507v-7.358l19.788 11.749c.233.138.475.251.723.344v8.44L19.602 40.932zm43.355-1.507a1.76 1.76 0 0 1-.858 1.506L42.446 52.6v-8.44c.248-.094.49-.207.723-.345l19.788-11.75v7.359zm13.638 7.535h-3.192V36.826c0-.88.716-1.595 1.596-1.595.88 0 1.596.715 1.596 1.595V46.96zM40.16 3.381a1.35 1.35 0 0 1 1.379 0l31.738 18.845L41.54 41.07a1.35 1.35 0 0 1-1.379 0L8.423 22.226 40.161 3.38z"/>
        <path fill="#000" d="M47.058 22.643c0-3.05-2.785-5.531-6.207-5.531-3.423 0-6.208 2.481-6.208 5.531s2.785 5.532 6.207 5.532c3.423 0 6.208-2.482 6.208-5.532zm-9.224 0c0-1.268 1.382-2.34 3.016-2.34 1.635 0 3.017 1.072 3.017 2.34 0 1.269-1.382 2.34-3.017 2.34-1.634 0-3.016-1.071-3.016-2.34zM69.423 59.281H35.585a1.596 1.596 0 1 0 0 3.192h5.266c5.01 0 9.086 4.076 9.086 9.086a6.958 6.958 0 0 1-6.95 6.95H15.808a10.102 10.102 0 0 0 2.766-6.95 12.25 12.25 0 0 0-4.029-9.086h6.891a1.596 1.596 0 1 0 0-3.192H6.296a1.594 1.594 0 0 0 0 3.191c5.01 0 9.087 4.077 9.087 9.087a6.958 6.958 0 0 1-6.95 6.95 5.247 5.247 0 0 1-5.241-5.24 3.878 3.878 0 0 1 3.873-3.874 2.783 2.783 0 0 1 2.78 2.78 1.596 1.596 0 1 0 3.191 0 5.978 5.978 0 0 0-5.97-5.972A7.073 7.073 0 0 0 0 73.27c0 4.65 3.783 8.432 8.433 8.432h63.126c5.592 0 10.142-4.55 10.142-10.142 0-6.77-5.508-12.278-12.278-12.278zm2.136 19.228H50.362a10.102 10.102 0 0 0 2.767-6.95 12.25 12.25 0 0 0-4.03-9.087h20.323c5.01 0 9.087 4.077 9.087 9.087a6.958 6.958 0 0 1-6.95 6.95z"/>
        <path fill="#000" d="M27.435 59.749a1.608 1.608 0 0 0-.467 1.128c0 .42.17.831.467 1.128.297.297.709.468 1.129.468.42 0 .83-.171 1.128-.468.297-.297.467-.708.467-1.128 0-.42-.17-.831-.467-1.128a1.608 1.608 0 0 0-1.128-.468c-.42 0-.832.17-1.129.468z"/>
    </g>
</svg>
