<svg xmlns="http://www.w3.org/2000/svg" width="96" height="96" viewBox="0 0 96 96">
    <g fill="#FB8C01" fill-rule="nonzero" stroke="#FB8C01">
        <path d="M76.202 66.77L51.76 24.434c-1.8-3.116-6.294-3.117-8.094 0L19.223 66.77c-1.799 3.116.448 7.01 4.047 7.01h48.885c3.599 0 5.847-3.893 4.047-7.01zm-4.047 2.727H23.27a.389.389 0 0 1-.338-.586l24.442-42.336a.389.389 0 0 1 .677 0L72.494 68.91a.389.389 0 0 1-.339.586z"/>
        <path d="M47.713 39.86A2.141 2.141 0 0 0 45.572 42v12.275a2.141 2.141 0 0 0 4.282 0V42a2.141 2.141 0 0 0-2.141-2.141zM47.713 59.197a2.141 2.141 0 0 0-2.141 2.141v1.279a2.141 2.141 0 0 0 4.282 0v-1.279a2.14 2.14 0 0 0-2.141-2.14z"/>
    </g>
</svg>
