<svg xmlns="http://www.w3.org/2000/svg" xmlns:xlink="http://www.w3.org/1999/xlink" width="412" height="328" viewBox="0 0 412 328">
    <defs>
        <path id="a" d="M0 0h424v344H0z"/>
        <linearGradient id="c" x1="50%" x2="50%" y1="7.091%" y2="54.182%">
            <stop offset="0%" stop-opacity=".5"/>
            <stop offset="65.872%" stop-opacity=".05"/>
            <stop offset="100%" stop-color="#FFF" stop-opacity="0"/>
        </linearGradient>
        <filter id="d" width="134.3%" height="151%" x="-17.1%" y="-25.5%" filterUnits="objectBoundingBox">
            <feGaussianBlur in="SourceGraphic" stdDeviation="18.179"/>
        </filter>
        <filter id="e" width="110.5%" height="248.4%" x="-5.2%" y="-74.2%" filterUnits="objectBoundingBox">
            <feGaussianBlur in="SourceGraphic" stdDeviation="6"/>
        </filter>
        <filter id="f" width="118.3%" height="450.2%" x="-9.2%" y="-175.1%" filterUnits="objectBoundingBox">
            <feGaussianBlur in="SourceGraphic" stdDeviation="10"/>
        </filter>
        <path id="h" d="M32.893 15.777c0-8.615 6.99-15.6 15.598-15.6h314.865c8.615 0 15.599 6.985 15.599 15.6v194.94c0 8.616-6.991 15.6-15.599 15.6H48.491c-8.614 0-15.598-6.985-15.598-15.6V15.778z"/>
        <filter id="g" width="100.3%" height="100.9%" x="-.1%" y="-.2%" filterUnits="objectBoundingBox">
            <feOffset dy="1" in="SourceAlpha" result="shadowOffsetOuter1"/>
            <feColorMatrix in="shadowOffsetOuter1" values="0 0 0 0 0 0 0 0 0 0 0 0 0 0 0 0 0 0 0.2 0"/>
        </filter>
        <filter id="i" width="100.6%" height="101.3%" x="-.3%" y="-.4%" filterUnits="objectBoundingBox">
            <feGaussianBlur in="SourceAlpha" result="shadowBlurInner1" stdDeviation=".5"/>
            <feOffset dy="1" in="shadowBlurInner1" result="shadowOffsetInner1"/>
            <feComposite in="shadowOffsetInner1" in2="SourceAlpha" k2="-1" k3="1" operator="arithmetic" result="shadowInnerInner1"/>
            <feColorMatrix in="shadowInnerInner1" values="0 0 0 0 1 0 0 0 0 1 0 0 0 0 1 0 0 0 1 0"/>
        </filter>
        <linearGradient id="j" x1="0%" y1="50%" y2="50%">
            <stop offset="0%" stop-color="#BCBDBF"/>
            <stop offset="9.76%" stop-color="#D8D8DF"/>
            <stop offset="88.821%" stop-color="#D8D8DF"/>
            <stop offset="100%" stop-color="#ADAABD"/>
        </linearGradient>
        <linearGradient id="k" x1="50%" x2="50%" y1="0%" y2="100%">
            <stop offset="0%" stop-color="#FFF"/>
            <stop offset="100%" stop-color="#CDCBD5"/>
        </linearGradient>
        <path id="l" d="M50.025 15.939h312.483v195.302H50.025z"/>
    </defs>
    <g fill="none" fill-rule="evenodd">
        <g transform="translate(-4 -16)">
            <mask id="b" fill="#fff">
                <use xlink:href="#a"/>
            </mask>
            <g mask="url(#b)">
                <g transform="translate(4 16)">
                    <path fill="url(#c)" d="M363.413 221.177l-32.232 204.826c-1.324 5.905-252.65 5.902-253.974 0L44.975 221.177c-1.325-5.905 319.762-5.902 318.438 0z" filter="url(#d)" opacity=".5"/>
                    <path fill="#000" d="M35.497 225.91c0-6.7 5.438-12.133 12.129-12.133h318.652c6.698 0 12.128 5.43 12.128 12.133 0 6.701-5.438 12.133-12.128 12.133H47.626c-6.699 0-12.129-5.43-12.129-12.133z" filter="url(#e)" opacity=".05"/>
                    <path fill="#000" d="M53.108 213.911h310.428a8.566 8.566 0 1 1 0 17.132H53.108a8.566 8.566 0 1 1 0-17.132z" filter="url(#f)" opacity=".5"/>
                    <use fill="#000" filter="url(#g)" xlink:href="#h"/>
                    <use fill="#FFF" xlink:href="#h"/>
                    <use fill="#000" filter="url(#i)" xlink:href="#h"/>
                    <path fill="#FFF" d="M0 224.261h411.162v2.741H0z"/>
                    <path fill="url(#j)" fill-opacity=".5" d="M169.262 224.261h73.324v1.028c0 .568-.468 1.028-1.037 1.028H170.3a1.03 1.03 0 0 1-1.037-1.028v-1.028z"/>
                    <path fill="url(#k)" d="M206.266 226.317l204.896.685s-9.858 4.797-65.786 4.797h-139.11-140.48C9.884 231.8 0 227.002 0 227.002l206.266-.685z"/>
                    <use fill="#EEF2F4" xlink:href="#l"/>
                </g>
            </g>
        </g>
        <g fill-rule="nonzero">
            <path fill="#6B768D" d="M244.96 127.617h-74.707a4.002 4.002 0 0 1-4.002-4.002V70.253a4.002 4.002 0 0 1 4.002-4.002h74.707a4.002 4.002 0 0 1 4.002 4.002v53.362a4.002 4.002 0 0 1-4.002 4.002z"/>
            <path fill="#56637D" d="M171.587 123.615V70.253a4.002 4.002 0 0 1 4.002-4.002h-5.336a4.002 4.002 0 0 0-4.002 4.002v53.362a4.002 4.002 0 0 0 4.002 4.002h5.336a4.002 4.002 0 0 1-4.002-4.002zM198.268 127.617h18.677v21.345h-18.677z"/>
            <path fill="#808A9D" d="M191.598 148.962v-2.668l6.67-2.668h18.677l6.67 2.668v2.668z"/>
            <path fill="#EAEBEF" d="M166.25 75.589h82.712v42.69H166.25z"/>
            <path fill="#D5D8DE" d="M166.25 75.589h5.337v42.69h-5.336z"/>
            <g>
                <path fill="#D5D8DE" d="M174.255 86.261h18.677v18.677h-18.677z"/>
                <path fill="#C0C4CE" d="M174.255 86.261h5.336v18.677h-5.336z"/>
                <path fill="#9B91D1" d="M192.932 104.938l-6.67 6.67h-5.337l-6.67-6.67v-8.004h18.677z"/>
                <path fill="#8D81CA" d="M179.591 96.934h-5.336v8.004l6.67 6.67h5.336l-6.67-8.004z"/>
                <path fill="#F6E477" d="M180.925 111.608h5.336v37.354h-5.336z"/>
            </g>
            <g fill="#000">
                <path d="M244.96 65h-74.707A5.259 5.259 0 0 0 165 70.253v53.362a5.259 5.259 0 0 0 5.253 5.253h9.422v20.094a1.25 1.25 0 0 0 2.5 0v-36.103h2.836v36.103a1.25 1.25 0 0 0 2.501 0v-20.094h9.505v13.91l-5.884 2.355a1.25 1.25 0 0 0-.786 1.16v2.669c0 .69.56 1.25 1.25 1.25h32.018c.69 0 1.25-.56 1.25-1.25v-2.668a1.25 1.25 0 0 0-.786-1.161l-5.884-2.354v-13.911h26.765a5.259 5.259 0 0 0 5.253-5.253V70.253A5.259 5.259 0 0 0 244.96 65zm-74.707 2.501h74.707a2.755 2.755 0 0 1 2.751 2.752v4.085h-80.21v-4.085a2.755 2.755 0 0 1 2.752-2.752zm0 58.865a2.755 2.755 0 0 1-2.752-2.751v-4.086h12.174v6.837h-9.422zm11.19-16.008l-5.937-5.938v-6.235h16.175v6.235l-5.937 5.938h-4.3zm-3.186-18.844c.69 0 1.25-.56 1.25-1.25v-2.752h2.836v2.752a1.25 1.25 0 0 0 2.501 0v-2.752h2.835v2.752a1.25 1.25 0 0 0 2.501 0v-2.752h1.501v8.171h-16.175v-8.17h1.5v2.75c0 .691.56 1.251 1.251 1.251zm44.107 56.197h-29.516v-.57l5.66-2.265h18.196l5.66 2.265v.57zm-6.67-5.336h-16.175v-13.507h16.175v13.507zm29.266-16.009h-57.448v-6.837h46.192a1.25 1.25 0 1 0 0-2.501h-46.192v-4.901l6.304-6.304c.232-.232.366-.556.366-.885V86.262c0-.691-.56-1.251-1.25-1.251h-18.677c-.69 0-1.25.56-1.25 1.25v18.677c0 .329.133.653.366.885l6.304 6.303v4.902H167.5V76.84h80.21v40.188h-8.004a1.25 1.25 0 1 0 0 2.501h8.004v4.086a2.755 2.755 0 0 1-2.751 2.751z"/>
                <path d="M210.274 122.364h-5.336a1.25 1.25 0 0 0 0 2.502h5.336a1.25 1.25 0 1 0 0-2.502zM206.272 71.504h2.668a1.25 1.25 0 1 0 0-2.502h-2.668a1.25 1.25 0 0 0 0 2.502zM212.943 71.504h1.334a1.25 1.25 0 1 0 0-2.502h-1.334a1.25 1.25 0 1 0 0 2.502zM200.936 71.504h1.334a1.25 1.25 0 0 0 0-2.502h-1.334a1.25 1.25 0 0 0 0 2.502zM200.936 93.015a1.25 1.25 0 0 0 0 2.501c.782 0 1.417.636 1.417 1.418a1.25 1.25 0 0 0 2.502 0 3.923 3.923 0 0 0-3.919-3.919zM200.936 86.345a1.25 1.25 0 0 0 0 2.501c4.46 0 8.088 3.628 8.088 8.088a1.25 1.25 0 1 0 2.501 0c0-5.839-4.75-10.59-10.589-10.59z"/>
                <path d="M200.936 79.675a1.25 1.25 0 0 0 0 2.5c8.138 0 14.758 6.621 14.758 14.759a1.25 1.25 0 1 0 2.501 0c0-9.517-7.742-17.26-17.259-17.26z"/>
            </g>
        </g>
    </g>
</svg>
