<svg xmlns="http://www.w3.org/2000/svg" xmlns:xlink="http://www.w3.org/1999/xlink" width="412" height="328" viewBox="0 0 412 328">
    <defs>
        <path id="a" d="M0 0h424v344H0z"/>
        <linearGradient id="c" x1="50%" x2="50%" y1="7.091%" y2="54.182%">
            <stop offset="0%" stop-opacity=".5"/>
            <stop offset="65.872%" stop-opacity=".05"/>
            <stop offset="100%" stop-color="#FFF" stop-opacity="0"/>
        </linearGradient>
        <filter id="d" width="134.3%" height="151%" x="-17.1%" y="-25.5%" filterUnits="objectBoundingBox">
            <feGaussianBlur in="SourceGraphic" stdDeviation="18.179"/>
        </filter>
        <filter id="e" width="110.5%" height="248.4%" x="-5.2%" y="-74.2%" filterUnits="objectBoundingBox">
            <feGaussianBlur in="SourceGraphic" stdDeviation="6"/>
        </filter>
        <filter id="f" width="118.3%" height="450.2%" x="-9.2%" y="-175.1%" filterUnits="objectBoundingBox">
            <feGaussianBlur in="SourceGraphic" stdDeviation="10"/>
        </filter>
        <path id="h" d="M32.893 15.777c0-8.615 6.99-15.6 15.598-15.6h314.865c8.615 0 15.599 6.985 15.599 15.6v194.94c0 8.616-6.991 15.6-15.599 15.6H48.491c-8.614 0-15.598-6.985-15.598-15.6V15.778z"/>
        <filter id="g" width="100.3%" height="100.9%" x="-.1%" y="-.2%" filterUnits="objectBoundingBox">
            <feOffset dy="1" in="SourceAlpha" result="shadowOffsetOuter1"/>
            <feColorMatrix in="shadowOffsetOuter1" values="0 0 0 0 0 0 0 0 0 0 0 0 0 0 0 0 0 0 0.2 0"/>
        </filter>
        <filter id="i" width="100.6%" height="101.3%" x="-.3%" y="-.4%" filterUnits="objectBoundingBox">
            <feGaussianBlur in="SourceAlpha" result="shadowBlurInner1" stdDeviation=".5"/>
            <feOffset dy="1" in="shadowBlurInner1" result="shadowOffsetInner1"/>
            <feComposite in="shadowOffsetInner1" in2="SourceAlpha" k2="-1" k3="1" operator="arithmetic" result="shadowInnerInner1"/>
            <feColorMatrix in="shadowInnerInner1" values="0 0 0 0 1 0 0 0 0 1 0 0 0 0 1 0 0 0 1 0"/>
        </filter>
        <linearGradient id="j" x1="0%" y1="50%" y2="50%">
            <stop offset="0%" stop-color="#BCBDBF"/>
            <stop offset="9.76%" stop-color="#D8D8DF"/>
            <stop offset="88.821%" stop-color="#D8D8DF"/>
            <stop offset="100%" stop-color="#ADAABD"/>
        </linearGradient>
        <linearGradient id="k" x1="50%" x2="50%" y1="0%" y2="100%">
            <stop offset="0%" stop-color="#FFF"/>
            <stop offset="100%" stop-color="#CDCBD5"/>
        </linearGradient>
        <path id="l" d="M50.025 15.939h312.483v195.302H50.025z"/>
    </defs>
    <g fill="none" fill-rule="evenodd">
        <g transform="translate(-4 -16)">
            <mask id="b" fill="#fff">
                <use xlink:href="#a"/>
            </mask>
            <g mask="url(#b)">
                <g transform="translate(4 16)">
                    <path fill="url(#c)" d="M363.413 221.177l-32.232 204.826c-1.324 5.905-252.65 5.902-253.974 0L44.975 221.177c-1.325-5.905 319.762-5.902 318.438 0z" filter="url(#d)" opacity=".5"/>
                    <path fill="#000" d="M35.497 225.91c0-6.7 5.438-12.133 12.129-12.133h318.652c6.698 0 12.128 5.43 12.128 12.133 0 6.701-5.438 12.133-12.128 12.133H47.626c-6.699 0-12.129-5.43-12.129-12.133z" filter="url(#e)" opacity=".05"/>
                    <path fill="#000" d="M53.108 213.911h310.428a8.566 8.566 0 1 1 0 17.132H53.108a8.566 8.566 0 1 1 0-17.132z" filter="url(#f)" opacity=".5"/>
                    <use fill="#000" filter="url(#g)" xlink:href="#h"/>
                    <use fill="#FFF" xlink:href="#h"/>
                    <use fill="#000" filter="url(#i)" xlink:href="#h"/>
                    <path fill="#FFF" d="M0 224.261h411.162v2.741H0z"/>
                    <path fill="url(#j)" fill-opacity=".5" d="M169.262 224.261h73.324v1.028c0 .568-.468 1.028-1.037 1.028H170.3a1.03 1.03 0 0 1-1.037-1.028v-1.028z"/>
                    <path fill="url(#k)" d="M206.266 226.317l204.896.685s-9.858 4.797-65.786 4.797h-139.11-140.48C9.884 231.8 0 227.002 0 227.002l206.266-.685z"/>
                    <use fill="#EEF2F4" xlink:href="#l"/>
                </g>
            </g>
        </g>
        <path fill="#6B768D" d="M233.832 132.764zM231.768 130.87z"/>
        <path fill="#D5D8DE" d="M226.177 129.734l5.332 1.898-14.398-5.124c-1.184-.479-1.911-1.536-1.911-2.78v-3.722l-1.534-.006v3.664a3.04 3.04 0 0 1-1.91 2.844l-14.399 5.124c-2.373.958-4.012 3.374-4.357 5.869A20.438 20.438 0 0 0 206.969 143c8.764 0 16.247-5.509 19.208-13.266z"/>
        <g fill="#6B768D">
            <path d="M233.654 133.547zM234.713 136.04c.115.506.174 1.021.174 1.532v14.349-14.35c0-.51-.06-1.025-.174-1.531zM234.212 134.557zM233.324 133.083z"/>
            <path d="M234.713 136.04a7.657 7.657 0 0 0-1.39-2.957 6.954 6.954 0 0 0-1.378-1.362 6.074 6.074 0 0 0-1.366-.767l-5.19-1.836c-2.883 7.506-10.167 12.835-18.7 12.835-5.25 0-10.026-2.019-13.597-5.32a6.802 6.802 0 0 0-.067.939v14.349h41.862v-14.35c0-.51-.06-1.025-.174-1.531z"/>
        </g>
        <path fill="#FEBBA0" d="M202.795 115.14l9.494 4.86 9.466-4.86c2.152-1.271 3.606-3.594 3.83-6.204v-4.463h.996c1.33 0 2.419-1.061 2.419-2.359v-3.793c0-1.297-.14-2.359-1.47-2.359h-1.946V90H199v18.936c.223 2.61 1.644 4.932 3.795 6.205z"/>
        <path fill="#FEBBA0" d="M199 119.007v5.464l8 4.529 8-4.53V119l-8 2.958z"/>
        <path fill="#FFF" d="M207.24 128.93L199.3 124l-5.3 2.7 5.3 7.3 7.94-5.07 7.94-4.93 4.82 2.53-4.82 7.47z"/>
        <path fill="#6B768D" d="M199 90.704s1.534 1.002 4.388 2.149c1.123.093 2.298.147 3.533.147C218.268 93 225 88.58 225 88.58V79h-26v11.704z"/>
        <path fill="#6B768D" d="M242.49 72.509l-17.17-4.402c-4.427-.307-9.092.049-13.009 1.073l-27.703 7.194c-.97.25-1.505.639-1.608 1.041l19.3 4.945c3.306.853 7.57.854 10.876 0l29.315-7.628c2.012-.527 2.012-1.704 0-2.223z"/>
        <path fill="#0A537F" d="M240 100V88.794c0-1.537 1.35-2.794 3-2.794s3 1.257 3 2.794V100h-6z"/>
        <path fill="#D5D8DE" d="M220.433 103h-9.866c-.865 0-1.567-.687-1.567-1.535v-3.93c0-.848.702-1.535 1.567-1.535h9.866c.865 0 1.567.687 1.567 1.535v3.93c0 .848-.702 1.535-1.567 1.535zM204.432 103h-9.865c-.865 0-1.567-.687-1.567-1.535v-3.93c0-.848.702-1.535 1.567-1.535h9.865c.866 0 1.568.687 1.568 1.535v3.93c0 .848-.702 1.535-1.568 1.535z"/>
        <path fill="#000" fill-rule="nonzero" d="M245.217 84.257V73.17c0-.05-.003-.1-.008-.148.006-.07.008-.134.008-.191-.001-.654-.287-2.253-2.912-2.948l-25.667-6.764c-5.789-1.515-13.274-1.489-19.067.068l-25.663 6.848c-2.628.698-2.91 2.293-2.908 2.947 0 .652.287 2.246 2.911 2.932l14.845 3.91-.022 13.811c-1.938.411-3.396 2.128-3.396 4.178v3.85c0 2.049 1.458 3.766 3.396 4.177v2.746c0 .052.002.104.006.156.272 3.247 2.02 6.143 4.675 7.746.034.02.067.039.101.057l5.783 3.021V123c0 .463-.262.86-.685 1.04l-3.318 1.171a.27.27 0 0 0-.022.008l-10.893 3.84-.074.029c-3.281 1.312-5.572 4.792-5.572 8.462v14.573c0 1.037.844 1.878 1.887 1.878h56.973c1.042 0 1.887-.84 1.887-1.878V137.55c0-3.67-2.291-7.15-5.571-8.463a1.578 1.578 0 0 0-.074-.027l-14.235-5.02c-.44-.186-.684-.533-.684-.977v-3.505l5.751-3.014a2.27 2.27 0 0 0 .1-.056c2.677-1.617 4.437-4.512 4.708-7.746.004-.052.006-.104.006-.156v-2.746c1.938-.411 3.396-2.128 3.396-4.178v-3.85c0-.826-.05-1.698-.407-2.473-.527-1.143-1.599-1.798-2.942-1.798h-.047l-.022-13.778 13.983-3.739v8.234a4.652 4.652 0 0 0-2.784 4.25v11.11c0 1.038.845 1.878 1.887 1.878h5.566c1.042 0 1.887-.84 1.887-1.877V88.507a4.652 4.652 0 0 0-2.783-4.25zm-47.297 43.306l.074-.028a4.937 4.937 0 0 0 1.418-.87l4.147 2.554-3.893 2.466-2.757-3.766 1.01-.356zm15.233-4.297l-6.045 3.723-6.047-3.724c.005-.088.01-.177.01-.266v-1.463l1.52.795a8.83 8.83 0 0 0 4.518 1.244 8.83 8.83 0 0 0 4.517-1.245l1.52-.796v1.528c0 .069.004.136.007.204zm-6.808 16.847c-.02 0-.039 0-.059-.002l.822-6.456.817 6.433c-.061.004-1.359.031-1.58.025zm-13.146-10.885l4.46 6.094a1.888 1.888 0 0 0 2.539.478l3.082-1.953-.734 5.773a18.346 18.346 0 0 1-12.103-9.42l2.756-.972zm37.336 3.356c1.812.744 3.174 2.871 3.174 4.965v12.696h-53.202v-12.696c0-2.094 1.363-4.221 3.175-4.965l3.175-1.12a22.174 22.174 0 0 0 7.317 8.464 22.223 22.223 0 0 0 12.695 3.95c4.597 0 9.011-1.384 12.765-4a22.175 22.175 0 0 0 7.316-8.558l3.585 1.264zm-9.918-3.497l2.747.968c-2.394 4.658-6.703 8.077-11.712 9.428l-.717-5.637 3.084 1.954a1.887 1.887 0 0 0 2.597-.564l4-6.15zm-3.656-1.29l-2.495 3.835-3.81-2.413 4.138-2.548a5.087 5.087 0 0 0 1.503.892l.664.234zm10.145-26.136c0 .28-.238.517-.519.517h-.99c-1.042 0-1.887.84-1.887 1.877v4.447c-.188 1.992-1.25 3.758-2.853 4.746l-11.036 5.785a1.974 1.974 0 0 0-.099.056 4.982 4.982 0 0 1-5.226 0 1.798 1.798 0 0 0-.102-.058l-11.068-5.783c-1.581-.976-2.63-2.742-2.819-4.746v-4.447a1.882 1.882 0 0 0-1.886-1.877h-.991a.525.525 0 0 1-.519-.517v-3.85c0-.28.238-.516.519-.516h.66l2.606.94v3.53c0 1.864 1.524 3.38 3.396 3.38h9.5a3.397 3.397 0 0 0 3.317-2.66 3.397 3.397 0 0 0 3.316 2.66h9.5c1.872 0 3.396-1.516 3.396-3.38v-3.52l2.61-.949h1.162c.008.13.013.298.013.516v3.85zm-19.981-7.106c7.693 0 13.4-1.853 16.585-3.233v2.783l-2.236.813a3.383 3.383 0 0 0-1.549-.376h-9.5a3.397 3.397 0 0 0-3.316 2.66 3.397 3.397 0 0 0-3.317-2.66h-9.5c-.553 0-1.075.135-1.538.37l-2.247-.81v-2.784c3.192 1.38 8.914 3.237 16.618 3.237zm-16.596-7.383v-6.356l10.662 2.808c1.797.476 3.855.714 5.915.714 2.062 0 4.125-.239 5.924-.717l10.658-2.85v6.404c-2.118 1.083-8.006 3.625-16.563 3.625-8.564 0-14.473-2.546-16.596-3.628zm29.019 11.125v3.092h-8.746v-3.092h8.746zm-16.134 0v3.092h-8.745v-3.092h8.745zm3.719-23.25h23.424l-18.503 4.947c-3.003.797-6.886.797-9.895 0l-26.679-7.025 23.07-6.157c5.207-1.399 11.93-1.423 17.125-.063l17.238 4.542h-25.78c-1.042 0-1.887.841-1.887 1.878s.844 1.878 1.887 1.878zm37.094 22.693h-1.793v-9.233c0-.484.41-.892.897-.892.485 0 .896.408.896.892v9.233z"/>
        <path fill="#000" d="M197.511 147h-.022a1.494 1.494 0 0 1-1.489-1.5c0-.828.667-1.5 1.489-1.5h.022c.823 0 1.489.672 1.489 1.5 0 .829-.666 1.5-1.489 1.5zM191.156 147h-7.312c-1.018 0-1.844-.671-1.844-1.5 0-.828.826-1.5 1.844-1.5h7.312c1.018 0 1.844.672 1.844 1.5 0 .829-.826 1.5-1.844 1.5z"/>
    </g>
</svg>
