<svg xmlns="http://www.w3.org/2000/svg" xmlns:xlink="http://www.w3.org/1999/xlink" width="412" height="328" viewBox="0 0 412 328">
    <defs>
        <path id="a" d="M0 0h424v344H0z"/>
        <linearGradient id="c" x1="50%" x2="50%" y1="7.091%" y2="54.182%">
            <stop offset="0%" stop-opacity=".5"/>
            <stop offset="65.872%" stop-opacity=".05"/>
            <stop offset="100%" stop-color="#FFF" stop-opacity="0"/>
        </linearGradient>
        <filter id="d" width="134.3%" height="151%" x="-17.1%" y="-25.5%" filterUnits="objectBoundingBox">
            <feGaussianBlur in="SourceGraphic" stdDeviation="18.179"/>
        </filter>
        <filter id="e" width="110.5%" height="248.4%" x="-5.2%" y="-74.2%" filterUnits="objectBoundingBox">
            <feGaussianBlur in="SourceGraphic" stdDeviation="6"/>
        </filter>
        <filter id="f" width="118.3%" height="450.2%" x="-9.2%" y="-175.1%" filterUnits="objectBoundingBox">
            <feGaussianBlur in="SourceGraphic" stdDeviation="10"/>
        </filter>
        <path id="h" d="M32.893 15.777c0-8.615 6.99-15.6 15.598-15.6h314.865c8.615 0 15.599 6.985 15.599 15.6v194.94c0 8.616-6.991 15.6-15.599 15.6H48.491c-8.614 0-15.598-6.985-15.598-15.6V15.778z"/>
        <filter id="g" width="100.3%" height="100.9%" x="-.1%" y="-.2%" filterUnits="objectBoundingBox">
            <feOffset dy="1" in="SourceAlpha" result="shadowOffsetOuter1"/>
            <feColorMatrix in="shadowOffsetOuter1" values="0 0 0 0 0 0 0 0 0 0 0 0 0 0 0 0 0 0 0.2 0"/>
        </filter>
        <filter id="i" width="100.6%" height="101.3%" x="-.3%" y="-.4%" filterUnits="objectBoundingBox">
            <feGaussianBlur in="SourceAlpha" result="shadowBlurInner1" stdDeviation=".5"/>
            <feOffset dy="1" in="shadowBlurInner1" result="shadowOffsetInner1"/>
            <feComposite in="shadowOffsetInner1" in2="SourceAlpha" k2="-1" k3="1" operator="arithmetic" result="shadowInnerInner1"/>
            <feColorMatrix in="shadowInnerInner1" values="0 0 0 0 1 0 0 0 0 1 0 0 0 0 1 0 0 0 1 0"/>
        </filter>
        <linearGradient id="j" x1="0%" y1="50%" y2="50%">
            <stop offset="0%" stop-color="#BCBDBF"/>
            <stop offset="9.76%" stop-color="#D8D8DF"/>
            <stop offset="88.821%" stop-color="#D8D8DF"/>
            <stop offset="100%" stop-color="#ADAABD"/>
        </linearGradient>
        <linearGradient id="k" x1="50%" x2="50%" y1="0%" y2="100%">
            <stop offset="0%" stop-color="#FFF"/>
            <stop offset="100%" stop-color="#CDCBD5"/>
        </linearGradient>
        <path id="l" d="M50.025 15.939h312.483v195.302H50.025z"/>
        <path id="m" d="M0 0h104v104H0z"/>
    </defs>
    <g fill="none" fill-rule="evenodd">
        <g transform="translate(-4 -16)">
            <mask id="b" fill="#fff">
                <use xlink:href="#a"/>
            </mask>
            <g mask="url(#b)">
                <g transform="translate(4 16)">
                    <path fill="url(#c)" d="M363.413 221.177l-32.232 204.826c-1.324 5.905-252.65 5.902-253.974 0L44.975 221.177c-1.325-5.905 319.762-5.902 318.438 0z" filter="url(#d)" opacity=".5"/>
                    <path fill="#000" d="M35.497 225.91c0-6.7 5.438-12.133 12.129-12.133h318.652c6.698 0 12.128 5.43 12.128 12.133 0 6.701-5.438 12.133-12.128 12.133H47.626c-6.699 0-12.129-5.43-12.129-12.133z" filter="url(#e)" opacity=".05"/>
                    <path fill="#000" d="M53.108 213.911h310.428a8.566 8.566 0 1 1 0 17.132H53.108a8.566 8.566 0 1 1 0-17.132z" filter="url(#f)" opacity=".5"/>
                    <use fill="#000" filter="url(#g)" xlink:href="#h"/>
                    <use fill="#FFF" xlink:href="#h"/>
                    <use fill="#000" filter="url(#i)" xlink:href="#h"/>
                    <path fill="#FFF" d="M0 224.261h411.162v2.741H0z"/>
                    <path fill="url(#j)" fill-opacity=".5" d="M169.262 224.261h73.324v1.028c0 .568-.468 1.028-1.037 1.028H170.3a1.03 1.03 0 0 1-1.037-1.028v-1.028z"/>
                    <path fill="url(#k)" d="M206.266 226.317l204.896.685s-9.858 4.797-65.786 4.797h-139.11-140.48C9.884 231.8 0 227.002 0 227.002l206.266-.685z"/>
                    <use fill="#EEF2F4" xlink:href="#l"/>
                </g>
            </g>
        </g>
        <g transform="translate(156 56)">
            <mask id="n" fill="#fff">
                <use xlink:href="#m"/>
            </mask>
            <g fill-rule="nonzero" mask="url(#n)">
                <path fill="#E4E3E1" d="M91.614 20.817a.718.718 0 0 0-1.21-.354l-8.59 8.59c-.31.311-.762.432-1.186.319l-5.79-1.552a1.239 1.239 0 0 1-.877-.876L72.42 21.19c-.12-.447.008-.923.334-1.25l8.603-8.603a.688.688 0 0 0-.339-1.157c-10.745-2.434-20.023 7.884-16.349 18.382.162.463.054.978-.293 1.325L30.054 64.209c-.481.481-1.191.645-1.837.434-10.43-3.407-20.514 5.807-18.104 16.443.12.53.773.723 1.157.34l8.603-8.604a1.294 1.294 0 0 1 1.25-.335l5.754 1.542c.427.115.761.448.875.876l1.552 5.791c.113.424-.007.876-.318 1.186l-8.59 8.59c-.397.397-.207 1.084.34 1.206 10.693 2.39 19.902-7.84 16.38-18.23a1.607 1.607 0 0 1 .387-1.651l34.39-34.39c.343-.342.85-.449 1.307-.287 10.401 3.686 20.811-5.52 18.414-16.303z"/>
                <path fill="#D1D0CF" d="M30.653 66.912a1.803 1.803 0 0 0 1.837-.435l34.322-34.322c.348-.347.456-.862.294-1.325-3.344-9.554 4.04-18.957 13.495-18.736l.756-.757a.688.688 0 0 0-.339-1.157C70.273 7.746 60.996 18.064 64.67 28.562c.162.463.054.978-.293 1.325L30.054 64.209c-.481.481-1.19.645-1.837.434-10.43-3.407-20.514 5.807-18.104 16.443.12.53.773.723 1.157.34l.924-.925c-.219-9.351 8.977-16.687 18.46-13.59z"/>
                <path fill="#3E4151" d="M47.796 52.562l4.698-4.698 4.131 4.131-4.698 4.699z"/>
                <path fill="#353744" d="M47.796 52.562l2.392-2.392 4.131 4.132-2.392 2.392z"/>
                <path fill="#E4E3E1" d="M20.446 23.917l3.403-3.403L51.847 48.51l-3.404 3.403z"/>
                <path fill="#D1D0CF" d="M20.446 23.917l2.328-2.328L50.77 49.587l-2.328 2.327z"/>
                <path fill="#D1D0CF" d="M19.48 17.085a.985.985 0 0 0-1.305.078l-1.154 1.154a.866.866 0 0 0-.07 1.147l3.495 4.453 3.404-3.403-4.37-3.43z"/>
                <path fill="#C1C1C1" d="M19.231 17.074a1.309 1.309 0 0 1-.108-.164.983.983 0 0 0-.948.253l-1.154 1.154a.866.866 0 0 0-.069 1.147l3.494 4.453 2.328-2.328-3.543-4.515z"/>
                <path fill="#EA3F3F" d="M56.694 49.703l-7.058 7.058a3.577 3.577 0 0 0 0 5.058L80.107 92.29a3.577 3.577 0 0 0 5.058 0l7.058-7.057a3.577 3.577 0 0 0 0-5.058L61.752 49.703a3.577 3.577 0 0 0-5.058 0z"/>
                <path fill="#D4352F" d="M82.787 90.27l-31.13-31.131c-.932-.93-1.347-2.143-1.207-3.192l-.814.814a3.577 3.577 0 0 0 0 5.058l30.471 30.472a3.577 3.577 0 0 0 5.058 0l.815-.815c-1.05.14-2.262-.275-3.193-1.206z"/>
                <path fill="#ED5454" d="M56.693 49.703l-7.057 7.058a3.577 3.577 0 0 0 0 5.058l1.667 1.667L63.418 51.37l-1.667-1.667a3.577 3.577 0 0 0-5.058 0z"/>
                <path fill="#EA3F3F" d="M49.636 56.761a3.578 3.578 0 0 0 0 5.058l1.667 1.667 2.35-2.35-1.997-1.997c-.93-.931-1.346-2.143-1.206-3.193l-.814.815z"/>
                <g fill="#000">
                    <path d="M65.97 33.98l-7.913 7.913a1.26 1.26 0 1 0 1.783 1.782l7.913-7.912a1.26 1.26 0 1 0-1.783-1.783zM35.762 67.754l7.912-7.913a1.26 1.26 0 0 0-1.782-1.782l-7.913 7.912a1.26 1.26 0 0 0 1.783 1.783zM58.02 62.015a1.26 1.26 0 0 0 0 1.783l23.325 23.324a1.26 1.26 0 0 0 1.782-1.783L59.803 62.015a1.26 1.26 0 0 0-1.782 0zM87.12 83.128a1.26 1.26 0 0 0 0-1.782L63.797 58.022a1.26 1.26 0 0 0-1.783 1.782l23.324 23.324a1.26 1.26 0 0 0 1.782 0z"/>
                    <path d="M12.17 82.259l8.602-8.603a.034.034 0 0 1 .033-.009l5.742 1.539 1.544 5.76-8.577 8.578c-1.1 1.1-.556 2.988.957 3.326 1.144.256 2.29.382 3.422.382 10.125 0 17.876-10.068 14.425-20.245a.349.349 0 0 1 .085-.356l10.17-10.17c.15.169-1.649-1.637 30.652 30.663a4.843 4.843 0 0 0 6.84 0l7.058-7.057a4.843 4.843 0 0 0 0-6.84l-11.43-11.43a1.26 1.26 0 0 0-1.782 1.782l11.43 11.43a2.319 2.319 0 0 1 0 3.275l-7.058 7.058a2.319 2.319 0 0 1-3.276 0L53.094 63.428l10.333-10.333L75.752 65.42a1.26 1.26 0 0 0 1.783-1.782c-16.15-16.15-14.909-14.915-15.075-15.064l10.328-10.323c4.716 1.67 9.765.992 13.852-1.862a1.26 1.26 0 1 0-1.443-2.066c-3.412 2.383-7.628 2.948-11.567 1.552a2.525 2.525 0 0 0-2.62.584L60.06 47.41a4.823 4.823 0 0 0-4.249 1.345l-.288.288-1.26-1.26a1.26 1.26 0 0 0-1.96-1.559l-.447.448-1.266-1.266 14.686-14.685a2.55 2.55 0 0 0 .592-2.633c-3.227-9.22 4.496-18.282 13.837-16.93l-7.832 7.833a2.562 2.562 0 0 0-.661 2.468l1.541 5.754c.23.86.908 1.537 1.767 1.767l5.792 1.552a2.497 2.497 0 0 0 2.403-.644l7.86-7.86a12.62 12.62 0 0 1-1.702 8.386 1.26 1.26 0 1 0 2.153 1.31c2.043-3.357 2.692-7.348 1.827-11.238a1.98 1.98 0 0 0-3.33-.971l-8.577 8.577-5.76-1.544-1.54-5.742a.033.033 0 0 1 .01-.032l8.602-8.603a1.946 1.946 0 0 0-.952-3.277c-11.72-2.656-21.821 8.585-17.817 20.026l.004.02-14.685 14.684L24.75 19.565l-.008-.006-.032-.03a1.189 1.189 0 0 0-.065-.056l-.009-.008-4.37-3.43a2.247 2.247 0 0 0-2.974.18l-1.153 1.153c-.76.76-.833 1.97-.17 2.816l3.495 4.453.007.01c.018.022.037.043.057.064.01.01.019.022.03.032l.006.008 24.058 24.058-14.45 14.451a.542.542 0 0 1-.555.128c-5.333-1.743-10.982-.536-15.112 3.226-4.122 3.755-5.846 9.248-4.613 14.693.339 1.494 2.193 2.036 3.278.952zm11.688-60.02l26.216 26.215-1.621 1.62L22.237 23.86l1.621-1.621zm25.73 30.266l2.916-2.916 1.236 1.236-2.916 2.916-1.237-1.236zm1.724 9.141l-.776-.776a2.329 2.329 0 0 1 0-3.275l7.058-7.058.007-.007a2.327 2.327 0 0 1 3.268.007l.776.776-10.333 10.333zM18.902 18.17l3.06 2.401-1.393 1.393-2.4-3.06.733-.734zm-3.699 50.308c3.45-3.143 8.172-4.15 12.631-2.693a3.05 3.05 0 0 0 3.12-.741l14.45-14.451 1.266 1.265-.447.448a1.26 1.26 0 0 0 1.559 1.959l1.26 1.26-.289.289a4.841 4.841 0 0 0-1.342 4.245l-10.79 10.79a2.85 2.85 0 0 0-.69 2.948c3.09 9.113-4.572 18.124-13.905 16.78l7.86-7.86a2.495 2.495 0 0 0 .644-2.403l-1.551-5.791a2.505 2.505 0 0 0-1.767-1.768l-5.755-1.541a2.56 2.56 0 0 0-2.467.66l-7.833 7.833c-.605-4.198.867-8.333 4.046-11.229z"/>
                </g>
            </g>
        </g>
    </g>
</svg>
