<svg xmlns="http://www.w3.org/2000/svg" xmlns:xlink="http://www.w3.org/1999/xlink" width="412" height="328" viewBox="0 0 412 328">
    <defs>
        <path id="a" d="M0 0h424v344H0z"/>
        <linearGradient id="c" x1="50%" x2="50%" y1="7.091%" y2="54.182%">
            <stop offset="0%" stop-opacity=".5"/>
            <stop offset="65.872%" stop-opacity=".05"/>
            <stop offset="100%" stop-color="#FFF" stop-opacity="0"/>
        </linearGradient>
        <filter id="d" width="134.3%" height="151%" x="-17.1%" y="-25.5%" filterUnits="objectBoundingBox">
            <feGaussianBlur in="SourceGraphic" stdDeviation="18.179"/>
        </filter>
        <filter id="e" width="110.5%" height="248.4%" x="-5.2%" y="-74.2%" filterUnits="objectBoundingBox">
            <feGaussianBlur in="SourceGraphic" stdDeviation="6"/>
        </filter>
        <filter id="f" width="118.3%" height="450.2%" x="-9.2%" y="-175.1%" filterUnits="objectBoundingBox">
            <feGaussianBlur in="SourceGraphic" stdDeviation="10"/>
        </filter>
        <path id="h" d="M32.893 15.777c0-8.615 6.99-15.6 15.598-15.6h314.865c8.615 0 15.599 6.985 15.599 15.6v194.94c0 8.616-6.991 15.6-15.599 15.6H48.491c-8.614 0-15.598-6.985-15.598-15.6V15.778z"/>
        <filter id="g" width="100.3%" height="100.9%" x="-.1%" y="-.2%" filterUnits="objectBoundingBox">
            <feOffset dy="1" in="SourceAlpha" result="shadowOffsetOuter1"/>
            <feColorMatrix in="shadowOffsetOuter1" values="0 0 0 0 0 0 0 0 0 0 0 0 0 0 0 0 0 0 0.2 0"/>
        </filter>
        <filter id="i" width="100.6%" height="101.3%" x="-.3%" y="-.4%" filterUnits="objectBoundingBox">
            <feGaussianBlur in="SourceAlpha" result="shadowBlurInner1" stdDeviation=".5"/>
            <feOffset dy="1" in="shadowBlurInner1" result="shadowOffsetInner1"/>
            <feComposite in="shadowOffsetInner1" in2="SourceAlpha" k2="-1" k3="1" operator="arithmetic" result="shadowInnerInner1"/>
            <feColorMatrix in="shadowInnerInner1" values="0 0 0 0 1 0 0 0 0 1 0 0 0 0 1 0 0 0 1 0"/>
        </filter>
        <linearGradient id="j" x1="0%" y1="50%" y2="50%">
            <stop offset="0%" stop-color="#BCBDBF"/>
            <stop offset="9.76%" stop-color="#D8D8DF"/>
            <stop offset="88.821%" stop-color="#D8D8DF"/>
            <stop offset="100%" stop-color="#ADAABD"/>
        </linearGradient>
        <linearGradient id="k" x1="50%" x2="50%" y1="0%" y2="100%">
            <stop offset="0%" stop-color="#FFF"/>
            <stop offset="100%" stop-color="#CDCBD5"/>
        </linearGradient>
        <path id="l" d="M50.025 15.939h312.483v195.302H50.025z"/>
    </defs>
    <g fill="none" fill-rule="evenodd">
        <g transform="translate(-4 -16)">
            <mask id="b" fill="#fff">
                <use xlink:href="#a"/>
            </mask>
            <g mask="url(#b)">
                <g transform="translate(4 16)">
                    <path fill="url(#c)" d="M363.413 221.177l-32.232 204.826c-1.324 5.905-252.65 5.902-253.974 0L44.975 221.177c-1.325-5.905 319.762-5.902 318.438 0z" filter="url(#d)" opacity=".5"/>
                    <path fill="#000" d="M35.497 225.91c0-6.7 5.438-12.133 12.129-12.133h318.652c6.698 0 12.128 5.43 12.128 12.133 0 6.701-5.438 12.133-12.128 12.133H47.626c-6.699 0-12.129-5.43-12.129-12.133z" filter="url(#e)" opacity=".05"/>
                    <path fill="#000" d="M53.108 213.911h310.428a8.566 8.566 0 1 1 0 17.132H53.108a8.566 8.566 0 1 1 0-17.132z" filter="url(#f)" opacity=".5"/>
                    <use fill="#000" filter="url(#g)" xlink:href="#h"/>
                    <use fill="#FFF" xlink:href="#h"/>
                    <use fill="#000" filter="url(#i)" xlink:href="#h"/>
                    <path fill="#FFF" d="M0 224.261h411.162v2.741H0z"/>
                    <path fill="url(#j)" fill-opacity=".5" d="M169.262 224.261h73.324v1.028c0 .568-.468 1.028-1.037 1.028H170.3a1.03 1.03 0 0 1-1.037-1.028v-1.028z"/>
                    <path fill="url(#k)" d="M206.266 226.317l204.896.685s-9.858 4.797-65.786 4.797h-139.11-140.48C9.884 231.8 0 227.002 0 227.002l206.266-.685z"/>
                    <use fill="#EEF2F4" xlink:href="#l"/>
                </g>
            </g>
        </g>
        <g transform="translate(164.5 62.5)">
            <circle cx="43.072" cy="46.94" r="43.072" fill="#1A2B63"/>
            <path fill="#D9EAFC" d="M36.18 66.617a6.498 6.498 0 0 1 5.48 2.992.175.175 0 0 0 .28.021 9.54 9.54 0 0 1 7.143-3.223c.93 0 1.827.136 2.677.386l-3.137-8.042H37.522l-3.172 8.13a6.488 6.488 0 0 1 1.83-.264z"/>
            <g fill="#AEC1ED">
                <path d="M38.969 58.75h-1.447l-3.172 8.13a6.512 6.512 0 0 1 1.546-.253l3.073-7.876z"/>
                <path d="M32.803 74.927a.177.177 0 0 0 .201.148 11.809 11.809 0 0 1 9.948 3.03.175.175 0 0 0 .24 0 11.808 11.808 0 0 1 9.948-3.03l.028.002a.175.175 0 0 0 .174-.15 14.548 14.548 0 0 1 2.382-6.065 9.672 9.672 0 0 0-6.641-2.63 9.682 9.682 0 0 0-7.274 3.282 6.687 6.687 0 0 0-5.629-3.073 6.684 6.684 0 0 0-5.478 2.85 14.54 14.54 0 0 1 2.1 5.636z"/>
            </g>
            <path fill="#445EA0" d="M32.977 74.901c-1.058-7.122-7.197-12.586-14.613-12.586-5.148 0-9.68 2.634-12.325 6.627a43.265 43.265 0 0 0 16.938 16.099 12.032 12.032 0 0 1 10-10.14z"/>
            <path fill="#293D7C" d="M19.84 64.132c3.767 0 7.221 1.336 9.92 3.557a14.74 14.74 0 0 0-11.396-5.374c-5.148 0-9.68 2.634-12.325 6.627.35.587.714 1.164 1.09 1.732 2.833-3.96 7.47-6.542 12.71-6.542z"/>
            <path fill="#445EA0" d="M67.78 62.315c-7.416 0-13.554 5.464-14.612 12.586a12.032 12.032 0 0 1 10 10.14 43.268 43.268 0 0 0 16.937-16.099c-2.644-3.993-7.176-6.627-12.324-6.627z"/>
            <g fill="#293D7C">
                <path d="M68.674 62.342a15.051 15.051 0 0 0-.893-.027c-7.417 0-13.555 5.464-14.613 12.586.551.088 1.09.215 1.613.375 1.47-6.73 6.998-11.941 13.893-12.934z"/>
                <path d="M51.267 74.748a11.981 11.981 0 0 0-8.195 3.228 11.98 11.98 0 0 0-8.194-3.228c-6.054 0-11.062 4.474-11.901 10.295 6 3.171 12.837 4.97 20.095 4.97a42.879 42.879 0 0 0 20.096-4.97c-.84-5.821-5.847-10.295-11.901-10.295z"/>
            </g>
            <path fill="#1A2B63" d="M37.391 76.244a12.5 12.5 0 0 1 4.69.907 11.963 11.963 0 0 0-7.203-2.403c-6.054 0-11.062 4.474-11.902 10.295.708.374 1.427.728 2.157 1.063 1.232-5.64 6.25-9.862 12.258-9.862z"/>
            <g fill="#AEC1ED">
                <path d="M47.033 58.75h-2.658l.339 2.683a1.32 1.32 0 0 0 2.616-.33l-.297-2.352zM39.112 58.75l-.697 5.517a1.319 1.319 0 1 0 2.616.33l.74-5.847h-2.66z"/>
            </g>
            <path fill="#FE3745" d="M29.554 34.408c0-1.434.054-2.863.155-4.283-4.23 2.382-7.144 7.689-7.144 13.832 0 3.245.806 6.34 2.333 8.949a.778.778 0 0 0 .965.327 17.113 17.113 0 0 1 6.372-1.259c-1.755-5.402-2.68-11.435-2.68-17.566z"/>
            <path fill="#B7092B" d="M24.558 43.957c0-5.074 1.99-9.575 5.065-12.331.023-.502.05-1.002.086-1.5-4.23 2.381-7.144 7.688-7.144 13.831 0 3.245.807 6.34 2.333 8.949a.778.778 0 0 0 .966.327c.33-.135.666-.255 1.004-.369-1.511-2.6-2.31-5.68-2.31-8.907z"/>
            <g fill="#FE3745">
                <path d="M56.436 30.125c.1 1.42.154 2.85.154 4.283 0 6.131-.926 12.164-2.681 17.566 2.223.018 4.366.44 6.372 1.259a.775.775 0 0 0 .966-.327c1.526-2.61 2.333-5.704 2.333-8.949 0-6.143-2.914-11.45-7.144-13.832zM36.34 53.994v4.053c0 .484.396.88.88.88h11.705a.882.882 0 0 0 .88-.88v-4.053H36.34z"/>
            </g>
            <path fill="#B7092B" d="M39.33 58.047v-4.053h-2.99v4.053c0 .484.396.88.88.88h2.99a.882.882 0 0 1-.88-.88z"/>
            <path fill="#EEF6FF" d="M53.77 15.878H32.375c-1.961 5.653-2.995 12.015-2.995 18.53 0 6.773 1.123 13.43 3.248 19.25a.778.778 0 0 0 .73.512h19.43a.778.778 0 0 0 .731-.511c2.125-5.822 3.248-12.478 3.248-19.25 0-6.516-1.034-12.878-2.995-18.53z"/>
            <path fill="#D9EAFC" d="M35.118 53.659c-2.125-5.822-3.248-12.478-3.248-19.25 0-6.516 1.034-12.878 2.995-18.53h-2.491c-1.961 5.652-2.995 12.014-2.995 18.53 0 6.772 1.123 13.428 3.248 19.25a.778.778 0 0 0 .73.511h2.492a.778.778 0 0 1-.73-.511z"/>
            <path fill="#EA2A3D" d="M38.005 15.878v2.918c0 .483.396.879.88.879h8.375a.882.882 0 0 0 .88-.88v-2.917H38.004z"/>
            <path fill="#B7092B" d="M39.999 18.796v-2.918h-1.994v2.918c0 .483.396.879.88.879h1.993a.882.882 0 0 1-.88-.88z"/>
            <path fill="#FE3745" d="M43.072 0a.777.777 0 0 0-.49.173c-3.926 3.18-7.234 8.005-9.565 13.951a47.56 47.56 0 0 0-.704 1.93h21.519a47.56 47.56 0 0 0-.704-1.93c-2.331-5.946-5.639-10.77-9.566-13.95a.776.776 0 0 0-.49-.174z"/>
            <path fill="#B7092B" d="M44.318.814a23.82 23.82 0 0 0-.756-.64.777.777 0 0 0-.98 0c-3.926 3.18-7.234 8.004-9.565 13.95a47.56 47.56 0 0 0-.704 1.93h2.491a47.56 47.56 0 0 1 .704-1.93c2.18-5.56 5.214-10.139 8.81-13.31z"/>
            <circle cx="43.072" cy="31.808" r="8.97" fill="#445EA0"/>
            <circle cx="43.072" cy="31.808" r="5.754" fill="#69CDFF"/>
            <path fill="#52BBEF" d="M39.428 31.809a5.755 5.755 0 0 0 4.7 5.656 5.754 5.754 0 1 1 0-11.313 5.755 5.755 0 0 0-4.7 5.657z"/>
            <path fill="#FFD00D" d="M17.429 31.423a.499.499 0 0 1-.461-.308c-.981-2.37-1.705-3.093-4.075-4.075a.498.498 0 0 1 0-.92c2.37-.983 3.094-1.706 4.075-4.076a.499.499 0 0 1 .921 0c.982 2.37 1.706 3.093 4.075 4.075a.499.499 0 0 1 0 .921c-2.37.982-3.093 1.705-4.075 4.075a.499.499 0 0 1-.46.308z"/>
            <path fill="#FFAF10" d="M17.965 30.118c-.982-2.37-1.705-3.093-4.075-4.074a.498.498 0 0 1-.26-.249c-.228.107-.47.214-.737.324a.498.498 0 0 0 0 .921c2.37.982 3.094 1.705 4.075 4.075a.499.499 0 0 0 .921 0c.11-.266.218-.509.324-.736a.5.5 0 0 1-.248-.26z"/>
            <path fill="#FFF" d="M70.405 35.408a.438.438 0 0 1-.405-.27c-.863-2.084-1.499-2.72-3.582-3.582a.438.438 0 0 1 0-.81c2.083-.863 2.72-1.499 3.582-3.582a.438.438 0 0 1 .81 0c.862 2.083 1.498 2.72 3.582 3.582a.438.438 0 0 1 0 .81c-2.084.863-2.72 1.498-3.582 3.581a.438.438 0 0 1-.405.27z"/>
            <path fill="#D9EAFC" d="M70.876 34.261c-.863-2.083-1.499-2.718-3.582-3.581a.437.437 0 0 1-.229-.219c-.2.094-.413.188-.647.285a.438.438 0 0 0 0 .81c2.083.862 2.719 1.498 3.582 3.581a.438.438 0 0 0 .81 0c.096-.234.19-.447.284-.647a.438.438 0 0 1-.218-.229z"/>
            <path fill="#FF9518" d="M65.834 16.89a.51.51 0 0 1-.472-.315c-1.005-2.428-1.746-3.169-4.174-4.174a.51.51 0 0 1 0-.943c2.428-1.006 3.169-1.747 4.174-4.174a.51.51 0 0 1 .944 0c1.005 2.427 1.746 3.168 4.173 4.174a.51.51 0 0 1 0 .943c-2.427 1.005-3.168 1.747-4.174 4.174a.51.51 0 0 1-.471.315z"/>
            <path fill="#EF8318" d="M66.383 15.554c-1.006-2.427-1.747-3.168-4.174-4.173a.51.51 0 0 1-.266-.255c-.233.11-.482.219-.755.332a.51.51 0 0 0 0 .943c2.427 1.006 3.169 1.747 4.174 4.174a.51.51 0 0 0 .943 0c.113-.273.223-.522.332-.755a.51.51 0 0 1-.254-.266z"/>
        </g>
    </g>
</svg>
