<svg xmlns="http://www.w3.org/2000/svg" xmlns:xlink="http://www.w3.org/1999/xlink" width="412" height="328" viewBox="0 0 412 328">
    <defs>
        <path id="a" d="M0 0h424v344H0z"/>
        <linearGradient id="c" x1="50%" x2="50%" y1="7.091%" y2="54.182%">
            <stop offset="0%" stop-opacity=".5"/>
            <stop offset="65.872%" stop-opacity=".05"/>
            <stop offset="100%" stop-color="#FFF" stop-opacity="0"/>
        </linearGradient>
        <filter id="d" width="134.3%" height="151%" x="-17.1%" y="-25.5%" filterUnits="objectBoundingBox">
            <feGaussianBlur in="SourceGraphic" stdDeviation="18.179"/>
        </filter>
        <filter id="e" width="110.5%" height="248.4%" x="-5.2%" y="-74.2%" filterUnits="objectBoundingBox">
            <feGaussianBlur in="SourceGraphic" stdDeviation="6"/>
        </filter>
        <filter id="f" width="118.3%" height="450.2%" x="-9.2%" y="-175.1%" filterUnits="objectBoundingBox">
            <feGaussianBlur in="SourceGraphic" stdDeviation="10"/>
        </filter>
        <path id="h" d="M32.893 15.777c0-8.615 6.99-15.6 15.598-15.6h314.865c8.615 0 15.599 6.985 15.599 15.6v194.94c0 8.616-6.991 15.6-15.599 15.6H48.491c-8.614 0-15.598-6.985-15.598-15.6V15.778z"/>
        <filter id="g" width="100.3%" height="100.9%" x="-.1%" y="-.2%" filterUnits="objectBoundingBox">
            <feOffset dy="1" in="SourceAlpha" result="shadowOffsetOuter1"/>
            <feColorMatrix in="shadowOffsetOuter1" values="0 0 0 0 0 0 0 0 0 0 0 0 0 0 0 0 0 0 0.2 0"/>
        </filter>
        <filter id="i" width="100.6%" height="101.3%" x="-.3%" y="-.4%" filterUnits="objectBoundingBox">
            <feGaussianBlur in="SourceAlpha" result="shadowBlurInner1" stdDeviation=".5"/>
            <feOffset dy="1" in="shadowBlurInner1" result="shadowOffsetInner1"/>
            <feComposite in="shadowOffsetInner1" in2="SourceAlpha" k2="-1" k3="1" operator="arithmetic" result="shadowInnerInner1"/>
            <feColorMatrix in="shadowInnerInner1" values="0 0 0 0 1 0 0 0 0 1 0 0 0 0 1 0 0 0 1 0"/>
        </filter>
        <linearGradient id="j" x1="0%" y1="50%" y2="50%">
            <stop offset="0%" stop-color="#BCBDBF"/>
            <stop offset="9.76%" stop-color="#D8D8DF"/>
            <stop offset="88.821%" stop-color="#D8D8DF"/>
            <stop offset="100%" stop-color="#ADAABD"/>
        </linearGradient>
        <linearGradient id="k" x1="50%" x2="50%" y1="0%" y2="100%">
            <stop offset="0%" stop-color="#FFF"/>
            <stop offset="100%" stop-color="#CDCBD5"/>
        </linearGradient>
        <path id="l" d="M50.025 15.939h312.483v195.302H50.025z"/>
    </defs>
    <g fill="none" fill-rule="evenodd">
        <g transform="translate(-4 -16)">
            <mask id="b" fill="#fff">
                <use xlink:href="#a"/>
            </mask>
            <g mask="url(#b)">
                <g transform="translate(4 16)">
                    <path fill="url(#c)" d="M363.413 221.177l-32.232 204.826c-1.324 5.905-252.65 5.902-253.974 0L44.975 221.177c-1.325-5.905 319.762-5.902 318.438 0z" filter="url(#d)" opacity=".5"/>
                    <path fill="#000" d="M35.497 225.91c0-6.7 5.438-12.133 12.129-12.133h318.652c6.698 0 12.128 5.43 12.128 12.133 0 6.701-5.438 12.133-12.128 12.133H47.626c-6.699 0-12.129-5.43-12.129-12.133z" filter="url(#e)" opacity=".05"/>
                    <path fill="#000" d="M53.108 213.911h310.428a8.566 8.566 0 1 1 0 17.132H53.108a8.566 8.566 0 1 1 0-17.132z" filter="url(#f)" opacity=".5"/>
                    <use fill="#000" filter="url(#g)" xlink:href="#h"/>
                    <use fill="#FFF" xlink:href="#h"/>
                    <use fill="#000" filter="url(#i)" xlink:href="#h"/>
                    <path fill="#FFF" d="M0 224.261h411.162v2.741H0z"/>
                    <path fill="url(#j)" fill-opacity=".5" d="M169.262 224.261h73.324v1.028c0 .568-.468 1.028-1.037 1.028H170.3a1.03 1.03 0 0 1-1.037-1.028v-1.028z"/>
                    <path fill="url(#k)" d="M206.266 226.317l204.896.685s-9.858 4.797-65.786 4.797h-139.11-140.48C9.884 231.8 0 227.002 0 227.002l206.266-.685z"/>
                    <use fill="#EEF2F4" xlink:href="#l"/>
                </g>
            </g>
        </g>
        <g fill-rule="nonzero">
            <path fill="#F8CC7C" d="M230.947 123.248l-14.118-5.283v-13.53h-18.545v13.53l-14.117 5.283a11.836 11.836 0 0 0-7.689 11.085v18.416c0 .517.419.935.935.935H237.7a.935.935 0 0 0 .935-.935v-18.416c0-4.936-3.064-9.355-7.688-11.085z"/>
            <path fill="#D3A159" d="M230.947 123.248l-14.118-5.283v-13.53h-4.2v13.53l14.117 5.283a11.836 11.836 0 0 1 7.688 11.085v18.416a.935.935 0 0 1-.935.935h4.2a.935.935 0 0 0 .936-.935v-18.416c0-4.936-3.064-9.355-7.688-11.085z"/>
            <path fill="#935D38" d="M220.942 121.685c-2.242 5.174-7.389 8.794-13.385 8.794-5.998 0-11.144-3.62-13.386-8.794-2.368 7.87-2.875 21.295 2.37 32h22.032c5.244-10.705 4.738-24.13 2.37-32z"/>
            <path fill="#4E5173" d="M222.005 126.363a37.708 37.708 0 0 0-1.063-4.678c-2.242 5.174-7.389 8.794-13.385 8.794-5.998 0-11.144-3.62-13.386-8.794-1.095 3.638-1.79 8.464-1.705 13.659a24.25 24.25 0 0 0 9.305 1.844c8.439 0 15.872-4.298 20.234-10.825z"/>
            <path fill="#F9C295" d="M207.557 130.48c6.717 0 12.37-4.542 14.066-10.721l-4.794-1.794v-13.339c-.08-.066-.163-.128-.244-.192h-18.057c-.081.064-.164.126-.244.192v13.34l-4.795 1.793c1.697 6.179 7.35 10.72 14.068 10.72z"/>
            <path fill="#E59F6A" d="M216.585 104.434h-18.057c-.081.064-.164.126-.244.192v10.04c3.594 2.836 7.969 4.502 12.69 4.502 2.194 0 4.312-.361 6.314-1.031l-.459-.172v-13.339c-.08-.066-.163-.128-.244-.192zM230.839 101.108h-6.69V89.469h6.69a3.485 3.485 0 0 1 3.485 3.485v4.668a3.485 3.485 0 0 1-3.485 3.486zM184.274 101.108h6.69V89.469h-6.69a3.486 3.486 0 0 0-3.485 3.485v4.668a3.486 3.486 0 0 0 3.485 3.486z"/>
            <path fill="#E6EFF5" d="M229.7 90.218c0-13.778-9.914-24.947-22.143-24.947-12.23 0-22.144 11.169-22.144 24.947 0 13.777 9.914 24.947 22.144 24.947 12.23 0 22.143-11.17 22.143-24.947z"/>
            <path fill="#C5D3D6" d="M207.557 65.27c-.384 0-.765.012-1.144.034 10.549.67 18.937 11.568 18.937 24.914 0 13.345-8.388 24.244-18.937 24.914.379.022.76.033 1.144.033 12.23 0 22.143-11.17 22.143-24.947 0-13.778-9.914-24.947-22.143-24.947z"/>
            <g fill="#935D38">
                <path d="M204.22 63.748v5.735a2.347 2.347 0 0 0 2.347 2.346h1.979a2.347 2.347 0 0 0 2.347-2.346v-5.735a1.863 1.863 0 0 0-1.862-1.863h-2.95a1.863 1.863 0 0 0-1.861 1.863zM230.585 80.53h-1.528a2.342 2.342 0 0 0-2.342 2.342v1.989a2.342 2.342 0 0 0 2.342 2.342h1.528c1.22 0 2.21-.99 2.21-2.21V82.74c0-1.22-.99-2.21-2.21-2.21zM184.528 80.53h1.528a2.343 2.343 0 0 1 2.342 2.342v1.989a2.343 2.343 0 0 1-2.342 2.342h-1.528a2.21 2.21 0 0 1-2.21-2.21V82.74c0-1.22.99-2.21 2.21-2.21z"/>
            </g>
            <path fill="#4E5173" d="M222.146 89.835c0-2.384-2.24-4.318-5.005-4.318-2.764 0-5.004 1.934-5.004 4.318 0 2.385 2.24 4.318 5.004 4.318 2.764 0 5.005-1.933 5.005-4.318zM202.977 89.835c0-2.384-2.241-4.318-5.006-4.318-2.763 0-5.004 1.934-5.004 4.318 0 2.385 2.241 4.318 5.004 4.318 2.765 0 5.006-1.933 5.006-4.318z"/>
            <path fill="#ED6161" d="M207.292 83.87l-6.077-6.24c-.396-.408.002-1.075.549-.92l5.692 1.616a.37.37 0 0 0 .202 0l5.69-1.617c.547-.154.945.513.55.92l-6.077 6.241a.368.368 0 0 1-.53 0z"/>
            <path fill="#D3A159" d="M195.07 119.168l-6.362 2.38-3.589 6.781 4.288 2.421-4.288 6.423s3.808 11.574 8.628 16.511h2.794c-5.857-11.954-4.543-27.302-1.47-34.516zM221.366 153.684c4.82-4.937 8.627-16.51 8.627-16.51l-4.288-6.424 4.288-2.42-3.588-6.782-6.363-2.38c3.073 7.214 4.387 22.562-1.47 34.516h2.794z"/>
            <path fill="#000" d="M231.431 121.95l-4.504-1.685-.037-.014-6.362-2.38a.836.836 0 0 0-.039-.015l-2.275-.851v-3.3a23.772 23.772 0 0 0 5.551-4.395 1.385 1.385 0 1 0-2.018-1.897c-1.644 1.748-3.501 3.161-5.5 4.209a18.65 18.65 0 0 1-8.69 2.159c-12.122 0-21.565-11.722-20.705-25.278a3.734 3.734 0 0 0 2.931-3.642v-1.988a3.714 3.714 0 0 0-1.052-2.594c2.692-6.549 7.943-11.373 14.103-13.008v2.212a3.736 3.736 0 0 0 3.733 3.731h1.979a3.736 3.736 0 0 0 3.732-3.731V67.27c6.161 1.634 11.412 6.46 14.104 13.008a3.714 3.714 0 0 0-1.052 2.594v1.988a3.735 3.735 0 0 0 2.931 3.642c.274 4.314-.494 8.42-2.017 11.982a1.337 1.337 0 0 0-.064.151 24.55 24.55 0 0 1-1.316 2.593 1.385 1.385 0 1 0 2.392 1.398 27.08 27.08 0 0 0 1.123-2.134h2.46a4.876 4.876 0 0 0 4.87-4.87v-4.668a4.88 4.88 0 0 0-3.604-4.704 3.598 3.598 0 0 0 2.075-3.257v-2.255a3.599 3.599 0 0 0-3.595-3.594h-1.528l-.145.002c-3.134-7.557-9.358-13.067-16.634-14.73v-.67a3.251 3.251 0 0 0-3.247-3.247h-2.95a3.252 3.252 0 0 0-3.247 3.248v.67c-7.275 1.662-13.5 7.172-16.633 14.73a3.22 3.22 0 0 0-.145-.003h-1.528a3.598 3.598 0 0 0-3.595 3.594v2.255a3.6 3.6 0 0 0 2.075 3.257 4.879 4.879 0 0 0-3.605 4.704v4.667a4.876 4.876 0 0 0 4.871 4.871h2.47c2.27 4.802 5.828 8.728 10.155 11.199v3.314l-2.275.85-.04.014-6.362 2.381-.037.015-4.502 1.685a13.183 13.183 0 0 0-3.333 1.828 1.385 1.385 0 1 0 1.669 2.212 10.445 10.445 0 0 1 2.633-1.446l1.125-.42-1.882 3.555c-.35.664-.11 1.486.543 1.855l2.989 1.687-3.46 5.182a1.386 1.386 0 0 0-.164 1.202c.139.42 3.012 9.066 7.018 14.693h-3.857v-2.309a1.386 1.386 0 0 0-2.77 0v2.309h-6.331v-17.965a10.5 10.5 0 0 1 1.114-4.695 1.386 1.386 0 0 0-2.476-1.244 13.285 13.285 0 0 0-1.409 5.94v18.415c0 1.28 1.04 2.32 2.32 2.32h60.289c1.279 0 2.32-1.04 2.32-2.32v-18.416c0-5.486-3.452-10.462-8.59-12.383zm1.508-28.995v4.667c0 1.158-.943 2.1-2.1 2.1h-1.332a29.064 29.064 0 0 0 1.572-8.854 2.104 2.104 0 0 1 1.86 2.087zm-1.53-10.216v2.255c0 .454-.37.824-.824.824h-1.528a.958.958 0 0 1-.957-.957v-1.99c0-.527.43-.956.957-.956h1.528c.455 0 .824.37.824.824zm-25.326-19.468h2.948c.263 0 .477.213.477.477v1.761c-.001.032-.001.063 0 .094v3.88c0 .53-.432.96-.961.96h-1.98a.962.962 0 0 1-.961-.96v-3.88-1.855c0-.264.213-.477.477-.477zm-22.38 19.468c0-.454.37-.824.825-.824h1.528c.528 0 .957.43.957.958v1.988c0 .527-.43.957-.957.957h-1.528a.825.825 0 0 1-.824-.824v-2.255zm.571 16.984c-1.158 0-2.1-.943-2.1-2.1v-4.668c0-1.077.815-1.967 1.86-2.087a28.929 28.929 0 0 0 1.578 8.855h-1.338zm36.996 34.921c-.013 4.581-.657 11.286-3.574 17.655h-20.279c-2.384-5.206-3.25-10.635-3.493-14.946a25.58 25.58 0 0 0 7.325 1.216h.028a1.385 1.385 0 0 0 .028-2.77 22.806 22.806 0 0 1-7.46-1.403c.002-1.07.037-2.136.104-3.186a46.607 46.607 0 0 1 .744-5.847 15.968 15.968 0 0 0 12.864 6.502 15.97 15.97 0 0 0 12.861-6.498c.044.223.086.449.127.677-3.362 4.788-8.328 8.072-14.04 9.27a1.385 1.385 0 1 0 .569 2.712 25.506 25.506 0 0 0 13.985-8.16 50.6 50.6 0 0 1 .211 4.778zm-22.5-15.38c.54-.203.9-.72.9-1.298v-2.937a21.197 21.197 0 0 0 7.887 1.522 21.31 21.31 0 0 0 7.886-1.513v2.928c0 .578.36 1.095.9 1.297l2.647.99c.166.426.324.872.474 1.336a13.198 13.198 0 0 1-23.814 0c.149-.464.308-.91.474-1.335l2.645-.99zm-4.422 33.035c-3.741-4.178-6.863-12.565-7.695-14.927l3.906-5.852a1.383 1.383 0 0 0-.47-1.976l-3.114-1.758 2.711-5.124 3.094-1.157c-1.177 4.012-1.78 8.924-1.699 13.86 0 .044.003.085.008.126.097 5.483 1.044 11.382 3.305 16.808h-.046zm26.371 0c3.612-8.669 3.87-18.543 2.67-25.998a1.261 1.261 0 0 0-.018-.164 39.443 39.443 0 0 0-1.038-4.633l3.094 1.158 2.711 5.123-3.114 1.76a1.384 1.384 0 0 0-.47 1.974l3.906 5.853c-.831 2.361-3.95 10.745-7.695 14.927h-.046zm16.53 0h-6.33v-2.309a1.385 1.385 0 1 0-2.77 0v2.309h-3.857c4.007-5.627 6.879-14.273 7.017-14.693a1.386 1.386 0 0 0-.163-1.202l-3.46-5.182 2.989-1.687a1.385 1.385 0 0 0 .543-1.855l-1.882-3.555 1.125.42c4.06 1.519 6.789 5.453 6.789 9.79v17.964z"/>
            <path fill="#000" d="M217.141 84.132c-3.523 0-6.39 2.558-6.39 5.703 0 3.144 2.867 5.703 6.39 5.703 3.524 0 6.39-2.559 6.39-5.703 0-3.145-2.866-5.703-6.39-5.703zm0 8.635c-1.996 0-3.619-1.315-3.619-2.932s1.624-2.933 3.62-2.933c1.995 0 3.619 1.316 3.619 2.933 0 1.617-1.624 2.932-3.62 2.932zM204.362 89.835c0-3.145-2.867-5.703-6.39-5.703-3.524 0-6.39 2.558-6.39 5.703 0 3.144 2.866 5.703 6.39 5.703 3.523 0 6.39-2.559 6.39-5.703zm-6.39 2.932c-1.996 0-3.62-1.315-3.62-2.932s1.624-2.933 3.62-2.933c1.995 0 3.62 1.316 3.62 2.933 0 1.617-1.625 2.932-3.62 2.932zM205.885 97.882c1.156-.711 2.187-.711 3.343 0a1.385 1.385 0 0 0 1.452-2.36c-2.043-1.257-4.203-1.257-6.247 0a1.385 1.385 0 1 0 1.452 2.36zM211.942 101.967h-.185a1.385 1.385 0 1 0 0 2.77h.185a1.385 1.385 0 1 0 0-2.77zM211.942 107.785h-.185a1.385 1.385 0 1 0 0 2.77h.185a1.385 1.385 0 1 0 0-2.77zM203.356 101.967h-.185a1.385 1.385 0 1 0 0 2.77h.185a1.385 1.385 0 1 0 0-2.77zM203.356 107.785h-.185a1.385 1.385 0 1 0 0 2.77h.185a1.385 1.385 0 1 0 0-2.77zM207.557 85.368c.47 0 .928-.194 1.257-.53l6.077-6.243a1.918 1.918 0 0 0 .275-2.346 1.917 1.917 0 0 0-2.195-.871l-5.414 1.537-5.415-1.537a1.918 1.918 0 0 0-2.195.871 1.919 1.919 0 0 0 .276 2.347l6.076 6.241c.328.337.787.53 1.258.53zm-.48-5.71c.314.09.645.09.959 0l2.699-.765-3.178 3.264-3.179-3.264 2.699.766zM217.829 97.764a1.385 1.385 0 1 0 0 2.771h.184a1.385 1.385 0 1 0 0-2.77h-.184zM220.845 100.982a1.385 1.385 0 1 0 0 2.77h.185a1.386 1.386 0 0 0 0-2.77h-.185zM197.1 97.764a1.385 1.385 0 1 0 0 2.771h.185a1.385 1.385 0 1 0 0-2.77h-.185zM194.083 100.982a1.385 1.385 0 1 0 0 2.77h.185a1.386 1.386 0 0 0 0-2.77h-.185z"/>
        </g>
    </g>
</svg>
