<svg xmlns="http://www.w3.org/2000/svg" width="64" height="64" viewBox="0 0 64 64">
    <g fill="none" fill-rule="evenodd">
        <path fill="#FFDB2B" d="M40.711 21.225c-9.166-1.38-12.692 3.31-12.692 3.31-6.558-.62-9.308-2.483-9.308-2.483a10.26 10.26 0 0 1-4.23 2.875v24.436c0 1.82 1.522 3.31 3.384 3.31h28.77c1.86 0 3.384-1.49 3.384-3.31V22.88c-6.84 3.931-9.308-1.655-9.308-1.655z"/>
        <path fill="#F0785A" d="M24.965 29.27a2.402 2.402 0 0 1 2.2-1.408c1.326 0 2.28 1.071 2.4 2.348 0 0 .066.317-.077.887-.194.777-.65 1.467-1.266 1.994l-3.258 2.745-3.202-2.745c-.616-.527-1.073-1.218-1.266-1.994-.143-.57-.078-.887-.078-.887.12-1.277 1.075-2.348 2.401-2.348.984 0 1.775.58 2.146 1.409zM40.196 29.27a2.402 2.402 0 0 1 2.2-1.408c1.326 0 2.28 1.071 2.4 2.348 0 0 .066.317-.077.887-.194.777-.651 1.467-1.266 1.994l-3.258 2.745-3.203-2.745c-.615-.527-1.072-1.218-1.266-1.994-.143-.57-.077-.887-.077-.887.12-1.277 1.075-2.348 2.401-2.348.984 0 1.775.58 2.146 1.409z"/>
        <path fill="#FFF" d="M40.711 40.276H24.634c0 4.342 3.599 7.862 8.039 7.862 4.44 0 8.038-3.52 8.038-7.862z"/>
        <path fill="#F0C419" fill-rule="nonzero" d="M32.673 48.966c-4.9 0-8.885-3.898-8.885-8.69 0-.458.38-.828.846-.828h16.077c.467 0 .846.37.846.828 0 4.792-3.985 8.69-8.884 8.69zm-7.143-7.863c.42 3.491 3.464 6.207 7.143 6.207s6.722-2.716 7.142-6.207H25.53z"/>
        <path fill="#FEC722" d="M42.145 55.983h-19.79c-.61 0-1.105-.483-1.105-1.08v-2.23h22v2.23c0 .596-.495 1.08-1.105 1.08z"/>
        <path fill="#AC744F" d="M53.403 22.88c-.524-3.713-2.188-6.19-3.783-7.476-.775-.625-1.217-1.533-1.468-2.484-.676-2.567-3.163-3.937-5.749-4.109-1.647-.11-3.085.4-4.729 1.044-.517.202-1.144-.009-1.34-.518-1.01-2.625-6.798-1.28-11.21 3.103-.212.21-.58.103-.622-.189-.146-1.018-.222-2.853.978-3.44 0 0-3.73-2.052-6.927.684-.975.834-1.612 1.98-1.937 3.207-.078.293-.157.607-.228.916-.196.855-1.317 1.146-1.893.474l-.033-.042c-.54-.643-1.575-.543-1.912.221-1.794 4.074-4.577 13.208 1.93 21.023V24.927a10.26 10.26 0 0 0 4.231-2.875s2.75 1.862 9.308 2.483c0 0 3.526-4.69 12.692-3.31 0 0 2.468 5.586 9.308 1.655v12.414s4.53-4.316 3.384-12.414z"/>
    </g>
</svg>
