<svg xmlns="http://www.w3.org/2000/svg" width="64" height="64" viewBox="0 0 64 64">
    <g fill="none" fill-rule="evenodd" transform="translate(10 8)">
        <path fill="#AC744F" d="M43.403 14.88c-.524-3.713-2.188-6.19-3.783-7.476-.775-.625-1.217-1.533-1.468-2.484C37.476 2.353 34.99.983 32.403.811c-1.647-.11-3.085.4-4.729 1.044-.517.202-1.144-.009-1.34-.518-1.01-2.625-6.798-1.28-11.21 3.103-.212.21-.58.103-.622-.189-.146-1.018-.222-2.853.978-3.44 0 0-3.73-2.052-6.927.684-.975.834-1.612 1.98-1.937 3.207-.078.293-.157.607-.228.916-.196.855-1.317 1.146-1.893.474l-.033-.042c-.54-.643-1.575-.543-1.912.221C.756 10.345-2.027 19.48 4.48 27.294V16.927a10.26 10.26 0 0 0 4.231-2.875s2.75 1.862 9.308 2.483c0 0 3.526-4.69 12.692-3.31 0 0 2.468 5.586 9.308 1.655v12.414s4.53-4.316 3.384-12.414z"/>
        <path fill="#FFDB2B" d="M30.711 13.225c-9.166-1.38-12.692 3.31-12.692 3.31-6.558-.62-9.308-2.483-9.308-2.483a10.26 10.26 0 0 1-4.23 2.875v24.436c0 1.82 1.522 3.31 3.384 3.31h28.77c1.86 0 3.384-1.49 3.384-3.31V14.88c-6.84 3.931-9.308-1.655-9.308-1.655z"/>
        <path fill="#F18D46" d="M15.026 40.166a.856.856 0 0 1-.39-.093.818.818 0 0 1-.359-1.117c1.569-2.943 4.212-5.112 7.445-6.107a12.868 12.868 0 0 1 9.677.837c.415.211.575.711.359 1.116a.853.853 0 0 1-1.142.352 11.15 11.15 0 0 0-8.387-.725c-2.8.863-5.092 2.742-6.452 5.293a.85.85 0 0 1-.751.444z"/>
        <path fill="#F18D46" d="M29.23 36.248a.837.837 0 0 1-.846-.827c0-.458.38-.828.846-.828.84 0 1.523-.669 1.523-1.49 0-.457.38-.827.847-.827.467 0 .846.37.846.827 0 1.735-1.443 3.145-3.216 3.145zM16.199 40.883c-1.773 0-3.216-1.411-3.216-3.146 0-.458.38-.827.847-.827.467 0 .846.37.846.827 0 .822.683 1.49 1.523 1.49.467 0 .846.37.846.828a.836.836 0 0 1-.846.828z"/>
        <ellipse cx="29.907" cy="24" fill="#F0C419" rx="5.077" ry="4.966"/>
        <path fill="#FEC722" d="M32.145 47.983h-19.79c-.61 0-1.105-.483-1.105-1.08v-2.23h22v2.23c0 .596-.495 1.08-1.105 1.08z"/>
        <path fill="#FFF" d="M24.83 24c0 .581.108 1.137.296 1.655h9.563A4.844 4.844 0 0 0 34.984 24c0-.581-.107-1.137-.295-1.655h-9.564A4.864 4.864 0 0 0 24.83 24z"/>
        <ellipse cx="29.907" cy="24" fill="#556080" rx="1.692" ry="1.655"/>
        <ellipse cx="14.677" cy="24" fill="#F0C419" rx="5.077" ry="4.966"/>
        <path fill="#FFF" d="M9.6 24c0 .581.107 1.137.295 1.655h9.563A4.844 4.844 0 0 0 19.753 24c0-.581-.107-1.137-.295-1.655H9.894A4.864 4.864 0 0 0 9.6 24z"/>
        <ellipse cx="14.677" cy="24" fill="#556080" rx="1.692" ry="1.655"/>
    </g>
</svg>
