<svg xmlns="http://www.w3.org/2000/svg" width="64" height="64" viewBox="0 0 64 64">
    <g fill="none" fill-rule="evenodd">
        <path fill="#FFDB2B" d="M40.703 21.208c-9.167-1.38-12.693 3.31-12.693 3.31-6.557-.62-9.307-2.482-9.307-2.482a10.26 10.26 0 0 1-4.231 2.875v24.436c0 1.82 1.523 3.31 3.385 3.31h28.769c1.861 0 3.384-1.49 3.384-3.31V22.862c-6.84 3.931-9.307-1.655-9.307-1.655z"/>
        <path fill="#556080" d="M20.395 36.121a.854.854 0 0 1-.598-.242.814.814 0 0 1 0-1.17l7.18-7.022a.859.859 0 0 1 1.196 0c.33.323.33.846 0 1.17l-7.18 7.022a.854.854 0 0 1-.598.242z"/>
        <path fill="#556080" d="M27.575 36.121a.854.854 0 0 1-.598-.242l-7.18-7.022a.814.814 0 0 1 0-1.17.859.859 0 0 1 1.197 0l7.18 7.022c.33.323.33.846 0 1.17a.855.855 0 0 1-.599.242zM37.754 36.121a.854.854 0 0 1-.598-.242.814.814 0 0 1 0-1.17l7.18-7.022a.859.859 0 0 1 1.196 0c.33.323.33.846 0 1.17l-7.18 7.022a.854.854 0 0 1-.598.242z"/>
        <path fill="#556080" d="M44.933 36.121a.854.854 0 0 1-.598-.242l-7.18-7.022a.814.814 0 0 1 0-1.17.859.859 0 0 1 1.197 0l7.18 7.022c.33.323.33.846 0 1.17a.854.854 0 0 1-.599.242z"/>
        <path fill="#CC4B4C" d="M33.933 40.26v6.455c0 1.821 1.524 3.31 3.385 3.31h.846c1.862 0 3.385-1.489 3.385-3.31V40.26c-1.445.018-6.081 0-7.616 0z"/>
        <path fill="#C03A2B" d="M37.77 45.73a.836.836 0 0 1-.846-.827v-.137c0-2.12-.06-3.43-.182-3.902a.817.817 0 0 1-.27-.605c0-.457.379-.827.847-.827 1.092 0 1.174 1.383 1.24 2.493.058.971.057 2.097.057 2.843v.136c0 .457-.379.826-.846.826z"/>
        <path fill="#F29C1F" d="M42.395 41.087H23.78a.836.836 0 0 1-.847-.828c0-.457.379-.827.847-.827h18.615c.468 0 .846.37.846.827a.836.836 0 0 1-.846.828z"/>
        <path fill="#FEC722" d="M42.137 55.967h-19.79c-.61 0-1.105-.483-1.105-1.08v-2.23h22v2.23c0 .596-.495 1.08-1.105 1.08z"/>
        <path fill="#AC744F" d="M53.395 22.88c-.525-3.713-2.188-6.19-3.783-7.476-.775-.625-1.218-1.533-1.468-2.484-.676-2.567-3.163-3.937-5.749-4.109-1.647-.11-3.085.4-4.73 1.044-.516.202-1.143-.009-1.34-.518-1.01-2.625-6.797-1.28-11.21 3.103-.212.21-.579.103-.621-.189-.147-1.018-.223-2.853.977-3.44 0 0-3.729-2.052-6.927.684-.974.834-1.611 1.98-1.936 3.207-.078.293-.158.607-.228.916-.196.855-1.317 1.146-1.894.474l-.033-.042c-.54-.643-1.574-.543-1.911.221-1.795 4.074-4.578 13.208 1.93 21.023V24.927a10.26 10.26 0 0 0 4.23-2.875s2.75 1.862 9.308 2.483c0 0 3.526-4.69 12.693-3.31 0 0 2.468 5.586 9.307 1.655v12.414s4.53-4.316 3.385-12.414z"/>
    </g>
</svg>
